<?xml version="1.0" standalone="no"?>
<!DOCTYPE svg PUBLIC "-//W3C//DTD SVG 20010904//EN"
 "http://www.w3.org/TR/2001/REC-SVG-20010904/DTD/svg10.dtd">
<svg version="1.0" xmlns="http://www.w3.org/2000/svg"
 width="512.000000pt" height="512.000000pt" viewBox="0 0 512.000000 512.000000"
 preserveAspectRatio="xMidYMid meet">

<g transform="translate(0.000000,512.000000) scale(0.100000,-0.100000)"
fill="#000000" stroke="none">
<path d="M0 2560 l0 -2560 2560 0 2560 0 0 2560 0 2560 -2560 0 -2560 0 0
-2560z m2615 1495 c181 -10 229 -15 310 -30 44 -9 98 -17 120 -19 49 -5 168
-34 290 -71 50 -14 95 -28 100 -29 6 -2 30 -9 55 -16 25 -7 48 -13 53 -12 4 1
7 -2 7 -7 0 -5 12 -8 26 -8 15 0 29 -5 33 -10 3 -5 44 -19 91 -32 47 -12 99
-29 115 -37 50 -23 147 -55 198 -64 26 -5 71 -20 100 -33 98 -47 142 -65 168
-71 15 -3 40 -20 56 -38 16 -18 58 -53 93 -77 36 -24 76 -54 90 -66 14 -13 39
-30 57 -39 24 -12 37 -30 57 -83 89 -234 131 -472 131 -753 0 -239 -27 -428
-90 -635 -54 -177 -100 -265 -139 -265 -8 0 -16 -4 -18 -8 -4 -9 -173 -92
-188 -92 -5 0 -10 -4 -10 -10 0 -5 -7 -7 -15 -4 -8 4 -15 1 -15 -5 0 -6 -10
-11 -22 -11 -12 0 -29 -7 -38 -15 -10 -9 -27 -18 -40 -20 -12 -2 -28 -9 -36
-16 -8 -6 -21 -8 -30 -5 -9 3 -28 -3 -43 -13 -23 -17 -69 -34 -93 -36 -3 0
-10 -3 -14 -7 -4 -5 -16 -8 -26 -8 -10 0 -18 -4 -18 -10 0 -5 -9 -10 -20 -10
-11 0 -28 -4 -38 -9 -40 -22 -81 -32 -126 -31 -16 0 -33 -5 -37 -12 -5 -7 -39
-21 -76 -31 -37 -9 -84 -22 -103 -28 -19 -5 -45 -11 -58 -13 -19 -3 -20 -1
-10 12 11 13 10 14 -7 9 -38 -12 -160 -39 -190 -43 -85 -10 -112 -14 -135 -19
-14 -3 -47 -8 -75 -9 -27 -2 -50 -5 -50 -6 0 -1 -12 -4 -28 -6 -15 -1 -42 -5
-60 -9 -122 -22 -591 -22 -702 0 -16 4 -57 8 -90 11 -82 7 -130 12 -130 14 0
1 -16 4 -35 6 -48 5 -137 23 -185 37 -22 6 -47 12 -55 13 -39 3 -93 29 -157
73 -56 38 -115 65 -173 77 -15 3 -189 90 -212 106 -16 11 -28 16 -28 13 0 -3
-14 3 -31 15 -18 14 -28 28 -25 37 4 10 1 13 -12 9 -27 -9 -74 18 -96 54 -15
26 -23 31 -43 27 -19 -3 -35 4 -62 28 -20 18 -45 37 -57 43 -12 6 -34 36 -50
66 -15 30 -32 52 -37 49 -5 -3 -6 -11 -3 -19 9 -23 0 -17 -48 32 -25 25 -49
44 -53 42 -4 -2 -9 7 -11 19 -2 16 -8 20 -20 16 -9 -3 -14 -3 -10 2 4 4 -2 17
-15 27 -12 11 -22 27 -22 36 0 9 -6 16 -13 14 -6 -1 -12 3 -12 8 0 6 -16 26
-35 46 -19 19 -35 43 -35 54 0 10 -4 21 -9 24 -9 6 -23 57 -25 94 0 12 -7 27
-15 31 -7 5 -11 13 -7 19 3 6 2 13 -4 17 -5 3 -10 19 -10 36 0 16 -5 29 -11
29 -7 0 -10 12 -7 29 2 17 1 28 -4 25 -16 -10 -14 225 3 371 17 148 74 395 90
395 5 0 9 9 9 20 0 11 4 20 9 20 5 0 14 14 21 30 7 17 16 30 21 30 5 0 9 4 9
9 0 11 101 111 112 111 4 0 18 10 31 23 52 49 103 86 119 87 10 0 19 12 23 31
4 18 12 29 19 26 7 -3 26 7 42 22 16 15 45 33 64 41 19 7 44 21 55 30 32 25
92 49 114 45 13 -2 21 1 21 9 0 25 75 65 122 66 9 0 18 3 20 8 3 8 63 31 178
69 41 14 84 29 95 34 76 31 122 47 135 47 8 1 47 9 86 19 38 10 83 19 100 18
16 0 32 3 35 8 6 8 221 35 314 39 76 4 271 0 400 -7z"/>
<path d="M2380 3675 c-355 -60 -666 -289 -826 -606 -350 -699 82 -1526 856
-1640 121 -17 311 -7 432 24 352 92 634 336 773 671 103 249 112 543 24 792
-143 406 -480 692 -894 759 -108 18 -262 18 -365 0z"/>
</g>
</svg>
